<svg enable-background="new 0 0 140 140" height="512" viewBox="0 0 140 140" width="512" xmlns="http://www.w3.org/2000/svg"><circle cx="70" cy="70" fill="#45b39c" r="64"/><path d="m100.3406525 33.3616867-.2300415-.2300415-.0100098.0100098c-.4099731-.3499756-.9400024-.5700073-1.5299683-.5700073-1.3300171 0-2.4100342 1.0800171-2.4100342 2.4100342v.7399902c-4.6099854 5.1499634-15.8799438 15.5899658-33.4399376 18.9599609l-.9300537-.9299927-.0099487-.0100098-.0100098-.0099487h-.0100098c-.2600098-.25-.6099854-.4100342-1-.4100342h-14.1600341c-2.0799561 0-3.7799683 1.6900024-3.7799683 3.7800293v9.25c0 1.0100098.4000244 1.9199829 1.0499878 2.5999756h-.0100098l.0599976.0599976c.0100098.0100098.0100098.0200195.0200195.0200195l4.0800171 4.0599976-4.6199951 2.3699951h-.3600464l-.6699829.2399902-1.2199707-1.2199707h-12.8000507v17.5599976l41.9506836 41.9506912c35.2067261-.163147 63.6987305-28.747261 63.6987305-63.9923782 0-1.0203857-.0296631-2.0336914-.0769043-3.0423584z" opacity=".1"/><path d="m42.8215179 75.5608521 7.8817673-3.8393097v3.7378769z" fill="#f7be56"/><path d="m106.1725006 56.6933479-6.5920563-1.478775v13.0279503l6.5920563-1.4787292c.8823013-.1979294 1.5093536-.9812088 1.5093536-1.8854065v-6.2996254c0-.9042016-.6270523-1.6875306-1.5093536-1.8854142z" fill="#ebf0f3"/><path d="m50.7032852 69.3594894v22.7363052c0 1.6227951 1.3155212 2.938324 2.9383202 2.938324s2.938324-1.3155289 2.938324-2.938324v-22.7363052z" fill="#3a556a"/><path d="m97.6316986 34.0067291c-3.7092056 4.5682106-18.3514175 20.4753075-43.2525101 21.6931763h-8.9990501v6.1680717 6.1680641h8.9990501c24.9010925 1.2178726 39.5433044 17.1249695 43.2525101 21.6931839.2828293.3483734.9405365.1800079.9405365-.2394409v-27.6218071-27.6218071c0-.4194488-.6577072-.5878219-.9405365-.2394409z" fill="#ebf0f3"/><path d="m98.5722351 32.5706482c-1.3297348 0-2.4076614 1.0779648-2.4076614 2.4076576v53.5004463c0 1.3297272 1.0779266 2.407692 2.4076614 2.407692 1.3297272 0 2.407692-1.0779648 2.407692-2.407692v-53.5004463c0-1.3296928-1.0779648-2.4076576-2.407692-2.4076576z" fill="#2f4859"/><path d="m60.7579727 53.3198318h-14.1526222c-2.0876007 0-3.7799225 1.6923218-3.7799225 3.7799187v9.2553215c0 2.0876007 1.6923218 3.7799225 3.7799225 3.7799225h14.1526222c.8039894 0 1.4557648-.6517792 1.4557648-1.4558029v-13.903595c0-.8039894-.6517754-1.4557648-1.4557648-1.4557648z" fill="#e56353"/><g fill="#d15241"><path d="m46.784924 55.764992h12.274194v.803667h-12.274194z"/><path d="m46.784924 58.545284h12.274194v.803667h-12.274194z"/><path d="m46.784924 61.325577h12.274194v.803667h-12.274194z"/><path d="m46.784924 64.105873h12.274194v.803667h-12.274194z"/><path d="m46.784924 66.886162h12.274194v.803667h-12.274194z"/></g><path d="m61.9825325 81.4092102c0-1.0953598-.8879166-1.9832764-1.9832764-1.9832764 1.0953598 0 1.9832764-.8879166 1.9832764-1.983223 0-1.0953598-.8879166-1.9832764-1.9832764-1.9832764h-16.9595871l-6.0992699 2.2361679 2.101429 12.2215576 4.3622475 1.4082718h16.5951805c1.0953598 0 1.9832764-.8878708 1.9832764-1.983223 0-1.0953598-.8879166-1.9832764-1.9832764-1.9832764 1.0953598 0 1.9832764-.8879166 1.9832764-1.983223 0-1.0953598-.8879166-1.9832764-1.9832764-1.9832764 1.0953598.0000003 1.9832764-.8879163 1.9832764-1.9832227z" fill="#fcd462"/><path d="m28.34569 74.484062h12.801686v17.559069h-12.801686z" fill="#ebf0f3"/></svg>