<?xml version="1.0" standalone="no"?>
<!DOCTYPE svg PUBLIC "-//W3C//DTD SVG 20010904//EN"
 "http://www.w3.org/TR/2001/REC-SVG-20010904/DTD/svg10.dtd">
<svg version="1.0" xmlns="http://www.w3.org/2000/svg"
 width="512.000000pt" height="512.000000pt" viewBox="0 0 512.000000 512.000000"
 preserveAspectRatio="xMidYMid meet">

<g transform="translate(0.000000,512.000000) scale(0.100000,-0.100000)"
fill="#000000" stroke="none">
<path d="M980 4370 c-333 -71 -620 -293 -774 -597 -102 -204 -148 -399 -166
-706 -23 -411 42 -915 153 -1192 47 -115 60 -140 103 -208 125 -193 285 -290
479 -291 117 -1 174 23 255 104 72 71 108 135 140 251 47 170 51 430 10 644
-34 173 -67 229 -137 229 -51 0 -76 -33 -92 -125 -14 -78 -44 -162 -69 -191
-21 -26 -57 -22 -80 7 -35 44 -47 119 -46 285 1 178 19 279 65 380 55 119 125
169 236 170 139 0 246 -79 348 -260 48 -84 69 -145 90 -254 21 -109 49 -193
74 -221 14 -15 20 -43 24 -115 13 -203 103 -421 237 -575 104 -120 203 -305
250 -467 83 -289 215 -461 395 -513 153 -45 325 40 437 216 46 72 103 201 124
281 46 180 138 354 262 495 97 111 142 178 182 271 42 99 61 194 59 293 -1 77
1 91 25 131 26 45 76 224 76 275 0 34 56 172 95 233 41 65 121 146 174 176 36
21 63 28 126 31 70 4 85 2 125 -19 92 -49 160 -185 181 -363 16 -127 7 -345
-17 -415 -17 -50 -22 -55 -50 -58 -25 -2 -36 3 -52 25 -23 32 -56 136 -66 205
-16 109 -109 140 -173 59 -67 -85 -105 -497 -68 -726 53 -330 228 -496 481
-457 300 45 502 310 608 800 74 338 94 778 51 1092 -69 498 -281 830 -642
1009 -162 80 -303 111 -504 111 -218 0 -372 -37 -556 -135 -215 -114 -437
-337 -569 -573 -36 -63 -51 -81 -63 -77 -62 25 -207 29 -321 9 -32 -5 -37 -3
-49 23 -59 131 -250 364 -396 482 -172 139 -338 218 -535 255 -114 22 -330 20
-440 -4z m465 -125 c294 -86 565 -314 778 -656 39 -64 47 -85 47 -125 0 -122
-46 -290 -106 -390 -70 -118 -201 -221 -267 -212 -28 4 -82 109 -98 190 -23
114 7 161 167 256 l88 52 -55 0 c-62 0 -172 -36 -230 -74 -21 -14 -43 -26 -48
-26 -12 0 -101 173 -101 196 0 35 41 100 84 132 24 18 68 46 97 63 l54 30 -45
-6 c-93 -12 -147 -28 -207 -61 l-62 -33 -65 80 c-56 69 -66 87 -66 120 0 53
44 98 135 138 l70 30 -49 1 c-62 0 -160 -25 -212 -55 l-40 -24 -75 57 c-40 32
-75 66 -77 76 -10 50 23 85 123 129 l40 18 -65 -5 c-60 -5 -160 -35 -186 -57
-6 -5 -36 2 -74 18 -35 14 -99 32 -142 41 -89 17 -89 18 27 63 192 75 382 87
560 34z m2620 16 c50 -10 134 -36 188 -58 l98 -39 -73 -12 c-41 -6 -106 -24
-146 -41 l-73 -29 -65 29 c-44 20 -88 32 -132 35 l-67 5 48 -21 c87 -37 135
-87 120 -126 -3 -9 -40 -42 -81 -75 l-75 -59 -41 24 c-53 31 -150 56 -212 55
l-49 0 65 -27 c35 -15 81 -43 102 -63 32 -30 38 -42 38 -77 0 -35 -9 -51 -66
-121 -66 -81 -77 -90 -89 -71 -18 30 -141 74 -235 84 l-55 6 60 -33 c88 -48
124 -77 151 -123 33 -56 30 -86 -17 -173 -59 -108 -52 -104 -116 -65 -83 50
-155 74 -221 74 l-57 0 69 -40 c103 -60 165 -109 183 -143 24 -47 12 -150 -26
-230 -38 -79 -51 -91 -93 -83 -170 32 -324 283 -344 560 l-6 81 57 90 c87 139
160 231 270 340 275 274 588 389 890 326z m-3601 -283 c-5 -7 -28 -44 -52 -82
-83 -128 -158 -313 -197 -481 -30 -130 -44 -297 -45 -525 0 -340 21 -503 86
-669 66 -169 201 -300 326 -317 100 -14 224 85 307 245 37 72 121 304 121 336
0 8 10 21 22 29 32 23 45 5 65 -89 12 -60 17 -134 17 -295 1 -204 -1 -220 -27
-314 -44 -157 -105 -249 -199 -297 -47 -24 -145 -36 -205 -24 l-38 7 67 23
c76 27 165 82 203 127 57 67 104 192 124 325 11 70 16 371 6 362 -2 -3 -12
-59 -20 -125 -17 -134 -52 -263 -72 -271 -8 -3 -41 8 -73 24 -36 18 -60 25
-60 18 0 -22 45 -80 77 -100 18 -11 32 -22 33 -25 0 -3 -9 -20 -20 -37 -16
-27 -26 -33 -52 -33 -34 0 -85 26 -125 63 -13 11 -26 18 -29 15 -12 -12 40
-110 74 -137 l34 -29 -26 -18 c-62 -40 -144 -5 -189 81 l-16 30 0 -40 c-1 -24
9 -57 24 -82 l24 -43 -28 0 c-48 0 -146 57 -211 123 -93 94 -168 256 -224 482
-31 129 -33 144 -51 316 -19 184 -19 336 0 530 36 381 124 630 298 847 47 58
68 79 51 50z m4256 -83 c145 -196 238 -465 270 -774 13 -133 13 -469 0 -602
-14 -138 -52 -319 -91 -432 -46 -138 -103 -238 -179 -320 -74 -79 -142 -122
-209 -133 l-44 -7 27 45 c18 31 26 58 25 89 0 38 -2 41 -10 20 -37 -92 -125
-139 -189 -100 l-33 21 32 25 c35 27 71 90 71 123 0 21 -2 20 -37 -8 -53 -41
-77 -52 -112 -52 -25 0 -36 7 -51 33 -25 41 -25 41 7 58 29 15 83 84 83 105 0
9 -19 3 -56 -17 -84 -44 -88 -42 -112 49 -29 107 -42 186 -42 249 0 29 -4 53
-10 53 -14 0 -13 -211 1 -325 15 -119 50 -228 98 -302 56 -87 151 -152 251
-174 43 -9 51 -14 35 -20 -35 -13 -149 -10 -197 7 -124 42 -216 190 -249 399
-28 179 -4 582 37 612 23 17 58 -4 62 -38 5 -37 51 -177 85 -254 90 -209 232
-340 348 -321 58 9 108 37 172 96 178 163 247 449 234 975 -10 403 -83 674
-253 937 -57 89 -34 77 36 -17z m-2070 -367 c60 -22 93 -73 110 -168 36 -200
127 -396 236 -507 92 -94 171 -133 288 -142 l81 -7 -35 -22 c-36 -23 -120 -52
-151 -52 -26 0 -87 -57 -111 -104 -11 -22 -23 -69 -26 -104 l-5 -64 48 50 c51
55 121 105 174 123 39 14 51 3 51 -48 0 -35 -4 -40 -70 -83 -65 -42 -213 -190
-234 -233 -15 -33 -16 -56 -11 -180 6 -125 4 -151 -14 -222 -12 -44 -42 -121
-66 -172 -49 -100 -55 -140 -33 -232 9 -40 16 -52 38 -60 55 -19 43 -117 -28
-227 -124 -191 -371 -211 -276 -22 21 40 71 71 122 74 53 4 89 25 98 59 10 40
-4 73 -38 91 -53 27 -101 10 -224 -81 -9 -7 -22 -3 -41 13 -73 58 -127 83
-168 78 -47 -6 -85 -43 -85 -84 0 -47 33 -72 95 -72 47 0 88 -22 120 -64 37
-48 43 -98 16 -125 -30 -30 -73 -26 -143 11 -99 52 -180 166 -194 272 -5 36
-3 47 15 65 11 11 27 21 35 21 18 0 31 69 30 150 -1 42 -10 75 -42 140 -82
174 -105 297 -77 417 26 113 16 136 -116 265 -60 59 -129 119 -153 133 -48 28
-62 58 -46 100 8 21 14 25 33 20 53 -17 126 -64 181 -119 l59 -59 -6 58 c-7
67 -50 161 -87 187 -14 10 -62 28 -107 41 -44 13 -94 32 -110 43 l-28 19 80 6
c44 4 99 14 122 22 193 71 341 296 408 622 9 44 24 93 33 110 42 70 155 99
252 63z m2076 -1124 c-8 -78 -49 -213 -82 -270 -36 -64 -88 -104 -132 -104
-44 0 -104 28 -152 69 -39 34 -32 38 30 16 150 -53 254 41 316 289 9 36 19 66
22 66 2 0 2 -29 -2 -66z m-4258 -180 c36 -72 64 -96 127 -114 45 -13 95 -8
160 16 36 13 -35 -54 -80 -76 -81 -39 -144 -19 -196 62 -37 57 -75 165 -89
251 -16 97 -11 99 19 7 15 -47 42 -113 59 -146z m2956 10 c11 -74 -9 -167 -56
-261 -32 -66 -62 -106 -151 -201 -62 -65 -134 -145 -162 -177 -27 -33 -53 -64
-58 -70 -6 -6 -8 12 -5 45 6 82 86 241 181 363 43 54 77 100 77 102 0 3 -15 5
-32 5 -18 0 -53 10 -78 22 l-45 21 69 8 c53 6 79 15 116 40 49 34 103 109 116
163 6 26 8 27 14 10 4 -10 11 -42 14 -70z m-171 -36 c-24 -27 -67 -48 -98 -48
-28 0 -29 3 -15 30 6 12 17 16 30 13 24 -6 50 13 50 36 0 9 10 32 23 51 l22
35 3 -49 c2 -36 -2 -53 -15 -68z m-1435 -45 c46 -39 81 -54 145 -61 l62 -7
-28 -19 c-15 -10 -47 -21 -72 -24 -25 -2 -45 -7 -45 -11 0 -3 34 -48 75 -99
106 -131 193 -315 183 -384 -2 -18 -18 -4 -91 80 -49 55 -105 115 -125 133
-148 129 -239 336 -212 479 6 29 10 55 10 59 0 3 16 -23 35 -59 19 -35 48 -75
63 -87z m84 82 c11 -33 18 -40 40 -40 26 -1 58 -20 58 -36 0 -15 -49 -10 -87
8 -42 20 -69 69 -59 109 6 23 9 25 21 13 8 -8 20 -32 27 -54z m801 -1380 c26
-11 16 -26 -33 -52 -56 -30 -156 -31 -216 -4 -101 46 -51 72 126 67 58 -2 113
-7 123 -11z"/>
<path d="M2547 3277 c-43 -246 -151 -463 -284 -572 -27 -22 -31 -31 -26 -56 4
-23 -4 -48 -35 -107 -51 -98 -66 -168 -52 -242 15 -77 30 -87 30 -19 0 63 22
138 56 189 13 19 54 60 91 90 129 105 195 243 228 475 l8 50 17 -100 c32 -177
82 -288 169 -374 32 -31 77 -74 101 -96 56 -52 90 -127 99 -218 l7 -72 13 38
c8 23 12 66 9 106 -3 55 -12 84 -47 154 -30 62 -42 96 -40 121 3 30 -2 40 -44
76 -126 111 -227 321 -266 553 l-17 99 -17 -95z"/>
<path d="M2363 1748 c-34 -78 -38 -216 -8 -264 15 -24 121 -82 131 -72 4 4 2
13 -4 21 -6 7 -27 44 -46 83 -32 65 -52 141 -59 224 l-3 35 -11 -27z"/>
<path d="M2751 1739 c-2 -66 -41 -193 -80 -259 -22 -36 -37 -67 -35 -69 5 -6
65 20 106 47 49 32 65 92 48 189 -6 38 -17 82 -25 98 l-13 30 -1 -36z"/>
<path d="M4020 3039 c-55 -10 -86 -25 -129 -64 -72 -65 -161 -229 -161 -297 0
-54 -49 -239 -75 -286 -20 -36 -25 -58 -25 -119 0 -211 -86 -415 -258 -610
-39 -44 -86 -104 -105 -134 -34 -53 -87 -153 -87 -164 0 -18 25 5 81 78 89
115 338 403 451 522 l96 100 11 132 c18 216 55 360 109 425 31 37 94 67 140
68 79 0 155 -71 168 -156 4 -27 11 -43 18 -41 18 6 12 239 -8 317 -22 85 -71
187 -102 206 -33 22 -82 31 -124 23z"/>
<path d="M971 3015 c-77 -65 -110 -168 -118 -362 -6 -147 3 -181 25 -99 21 79
90 136 164 136 63 0 142 -52 175 -114 39 -75 83 -307 83 -436 l0 -59 111 -118
c175 -185 363 -407 499 -587 24 -32 46 -54 48 -48 9 28 -137 266 -235 383
-102 121 -181 314 -209 514 -11 78 -25 136 -40 167 -24 47 -74 224 -74 260 0
58 -115 263 -181 323 -54 48 -96 65 -163 65 -44 0 -60 -5 -85 -25z"/>
</g>
</svg>
