<?xml version="1.0" encoding="UTF-8" standalone="no"?>
<!DOCTYPE svg PUBLIC "-//W3C//DTD SVG 1.1//EN" "http://www.w3.org/Graphics/SVG/1.1/DTD/svg11.dtd">
<svg version="1.1" xmlns="http://www.w3.org/2000/svg" xmlns:xlink="http://www.w3.org/1999/xlink" preserveAspectRatio="xMidYMid meet" viewBox="0 0 640 640" width="640" height="640"><defs><path d="M640 320C640 496.61 496.61 640 320 640C143.39 640 0 496.61 0 320C0 143.39 143.39 0 320 0C496.61 0 640 143.39 640 320Z" id="ckMJjAlIX"></path><path d="M253.84 327.6L193.36 327.6C153.49 338.31 131.34 344.26 126.91 345.45C117.05 348.1 110.2 356.93 110.2 367C110.2 377.28 110.2 428.68 110.2 521.21L337 521.21C337 428.68 337 377.28 337 367C337 356.93 330.15 348.1 320.29 345.45C311.43 343.07 289.28 337.12 253.84 327.6Z" id="a1mJ0Ih3bC"></path><path d="M110.2 521.21L155.56 521.21C155.56 457.39 155.56 421.93 155.56 414.84C155.56 406.56 152.76 398.52 147.6 391.98C144.45 387.99 119.25 356.08 116.1 352.09C112.43 356.09 110.2 361.33 110.2 367C110.2 387.56 110.2 438.97 110.2 521.21Z" id="b278qeQJlE"></path><path d="M337 521.21L291.64 521.21C291.64 457.39 291.64 421.93 291.64 414.84C291.64 406.56 294.44 398.52 299.6 391.98C302.75 387.99 327.95 356.08 331.1 352.09C334.77 356.09 337 361.33 337 367C337 387.56 337 438.97 337 521.21Z" id="e1d32SRlPl"></path><path d="M261.4 297.82C261.4 297.82 261.4 297.82 261.4 297.82C261.4 333.56 261.4 353.42 261.4 357.39C261.4 357.39 261.4 357.39 261.4 357.39C216.04 357.39 190.84 357.39 185.8 357.39C185.8 357.39 185.8 357.39 185.8 357.39C185.8 321.65 185.8 301.79 185.8 297.82C185.8 297.82 185.8 297.82 185.8 297.82C231.16 297.82 256.36 297.82 261.4 297.82Z" id="a4CyUYqeyy"></path><path d="M185.8 327.61C197.44 332.39 210.2 335.05 223.6 335.05C237 335.05 249.76 332.39 261.4 327.61C261.4 327.6 261.4 327.6 261.4 327.6C261.4 325.86 261.4 317.18 261.4 301.54L185.8 301.54L185.8 327.6C185.8 327.6 185.8 327.6 185.8 327.61Z" id="b1BB6femJr"></path><path d="M467.46 376.03C461.72 373.76 457.96 368.29 457.96 362.2C457.96 360.39 457.96 351.34 457.96 335.05L397.48 335.05C397.48 351.34 397.48 360.39 397.48 362.2C397.48 368.29 393.71 373.76 387.97 376.03C382.79 378.07 341.32 394.41 336.13 396.45C327.52 399.84 321.88 408.06 321.88 417.19C321.88 420.14 321.88 443.79 321.88 446.74C321.88 450.86 325.26 454.19 329.44 454.19C329.44 454.19 329.44 454.19 329.44 454.19L329.44 521.21L526 521.21L526 454.19C526 454.19 526 454.19 526 454.19C530.17 454.19 533.56 450.86 533.56 446.74C533.56 443.79 533.56 420.14 533.56 417.19C533.56 408.06 527.91 399.84 519.3 396.45C508.93 392.36 472.64 378.07 467.46 376.03Z" id="i17fqq4TpZ"></path><path d="M458.73 366.81C458.25 365.34 457.96 363.8 457.96 362.2C457.96 360.39 457.96 351.34 457.96 335.05L397.48 335.05C397.48 351.34 397.48 360.39 397.48 362.2C397.48 363.8 397.19 365.34 396.7 366.81C406.39 370.28 416.81 372.28 427.72 372.28C438.63 372.28 449.04 370.29 458.73 366.81Z" id="c3moehTA2"></path><path d="M476.34 383.35C469.17 394.46 453 415.78 427.72 428.23C402.43 415.78 386.26 394.46 379.1 383.35C374.8 385.04 340.43 398.58 336.13 400.28C327.52 403.67 321.88 411.88 321.88 421.02C321.88 423.48 321.88 435.82 321.88 458.02L359.68 458.02L359.68 525.03L495.76 525.03L495.76 458.02L533.56 458.02C533.56 435.82 533.56 423.48 533.56 421.02C533.56 411.88 527.91 403.67 519.3 400.28C510.71 396.89 480.63 385.04 476.34 383.35Z" id="c2iE7c7s3"></path><path d="M355.25 434.94C352.26 431.99 328.31 408.4 325.32 405.45C323.14 408.91 321.88 412.94 321.88 417.19C321.88 419.66 321.88 431.99 321.88 454.19L359.68 454.19L359.68 445.47C358.62 440.31 357.14 436.8 355.25 434.94Z" id="bnJVYbw7l"></path><path d="M500.19 434.94C503.18 431.99 527.12 408.4 530.12 405.45C532.29 408.91 533.56 412.94 533.56 417.19C533.56 419.66 533.56 431.99 533.56 454.19L495.76 454.19L495.76 445.47C496.82 440.31 498.29 436.8 500.19 434.94Z" id="a4kiFInXst"></path><path d="M223.6 357.39C208.97 368.19 200.85 374.2 199.22 375.4C195.96 377.81 191.33 377.23 188.78 374.09C186.56 371.36 168.8 349.48 166.57 346.75C164.52 344.21 164.36 340.66 166.19 337.96C166.99 336.78 171.01 330.84 178.24 320.16L223.6 357.39Z" id="j4QGjl64JX"></path><path d="M223.6 357.39C238.23 368.19 246.35 374.2 247.98 375.4C251.24 377.81 255.87 377.23 258.42 374.09C260.64 371.36 278.4 349.48 280.62 346.75C282.68 344.21 282.84 340.66 281.01 337.96C280.21 336.78 276.19 330.84 268.96 320.16L223.6 357.39Z" id="b13CmJYWpa"></path><path d="M291.64 171.23L155.56 171.23C155.56 198.03 155.56 212.93 155.56 215.91C147.21 215.91 140.44 222.57 140.44 230.8C140.44 239.02 147.21 245.69 155.56 245.69C155.56 282.7 186.02 312.71 223.6 312.71C261.18 312.71 291.64 282.7 291.64 245.69C299.99 245.69 306.76 239.02 306.76 230.8C306.76 222.57 299.99 215.91 291.64 215.91C291.64 209.95 291.64 195.06 291.64 171.23Z" id="d4jbdKJc3"></path><path d="M193.36 171.23L155.56 171.23C155.56 198.03 155.56 212.93 155.56 215.91C147.21 215.91 140.44 222.57 140.44 230.8C140.44 239.02 147.21 245.69 155.56 245.69C155.56 282.7 186.02 312.71 223.6 312.71C230.17 312.71 236.49 311.74 242.5 310.03C214.13 301.96 193.36 276.24 193.36 245.69C193.36 235.76 193.36 210.94 193.36 171.23Z" id="b31CvVTmqW"></path><path d="M289.1 216.12C289.92 215.98 290.77 215.91 291.64 215.91C294.41 215.91 296.97 216.69 299.2 217.97C299.2 213.3 299.2 175.9 299.2 171.23C299.2 160.09 292.92 150.49 283.72 145.38C282 134.72 272.71 126.55 261.4 126.55C255.35 126.55 206.97 126.55 200.92 126.55C171.69 126.55 148 149.89 148 178.67C148 182.6 148 214.04 148 217.97C150.23 216.69 152.79 215.91 155.56 215.91C156.45 215.91 163.59 215.91 164.48 215.91C168.09 215.91 171.19 213.4 171.9 209.92C172.36 207.64 176.06 189.42 176.52 187.14C177.39 182.87 181.72 180.28 185.97 181.45C206.38 187.06 247.59 189.2 268.96 178.67C269.4 181.28 272.92 202.09 273.36 204.69C273.6 206.12 273.98 207.5 274.49 208.82C276.7 214.58 282.95 217.19 289.1 216.12Z" id="avWPPmzRx"></path><path d="M148 178.67C148 182.6 148 214.04 148 217.97C150.23 216.69 152.79 215.91 155.56 215.91C156.45 215.91 163.59 215.91 164.48 215.91C168.09 215.91 171.19 213.4 171.9 209.92C172.36 207.64 176.06 189.42 176.52 187.14C177.39 182.87 181.72 180.28 185.97 181.45C188.19 182.06 190.7 182.62 193.36 183.14C193.36 181.95 193.36 172.42 193.36 171.23C193.36 146.55 213.67 126.55 238.72 126.55C238.72 126.55 200.92 126.55 200.92 126.55C171.69 126.55 148 149.89 148 178.67Z" id="f14UiMTnxx"></path><path d="M465.52 156.34C465.52 139.89 448.59 126.55 427.72 126.55C406.84 126.55 389.92 139.89 389.92 156.34C389.92 159.31 390.64 162.12 391.67 164.83C363.63 178.71 344.56 208.09 344.56 240.96C344.56 242.92 344.56 258.62 344.56 260.58C382.36 245.69 397.48 223.35 397.48 223.35C435.28 253.14 495.76 230.8 495.76 282.92C496.01 282.55 498.04 279.55 498.3 279.17C506.5 267.05 510.88 252.81 510.88 238.25C510.88 205.79 491.66 177.82 463.87 164.56C464.84 161.93 465.52 159.21 465.52 156.34Z" id="m1pHPXU9Ud"></path><path d="M426.16 156.35C421.55 156.43 417.07 157 412.69 157.82C412.66 157.32 412.6 156.84 412.6 156.34C412.6 144.2 419.11 133.46 429.14 126.66C428.65 126.65 428.2 126.55 427.72 126.55C406.84 126.55 389.92 139.89 389.92 156.34C389.92 159.31 390.53 162.17 391.57 164.88C363.59 178.78 344.56 208.13 344.56 240.96C344.56 242.92 344.56 258.62 344.56 260.58C382.36 245.69 397.48 223.35 397.48 223.35C397.48 221.86 397.48 209.95 397.48 208.46C397.48 183.15 415.8 162.07 440.09 157.34C440.09 157.34 440.08 157.33 440.07 157.33C435.54 156.67 430.91 156.26 426.16 156.35Z" id="b3TYAlHCK"></path><path d="M403.81 227.75C400.36 225.64 395.77 226.56 393.53 229.89C387.69 238.57 375.74 252.84 360.16 253.13C351.64 253.29 344.56 259.52 344.56 267.91C344.56 267.93 344.56 268.02 344.56 268.03C344.56 276.26 351.33 282.92 359.68 282.92C359.68 288.04 360.26 293.03 361.36 297.82C368.24 327.66 395.34 349.94 427.72 349.94C460.1 349.94 487.19 327.66 494.07 297.82C495.17 293.03 495.76 288.04 495.76 282.92C495.76 233.62 441.65 250.94 403.81 227.75Z" id="a2iLBZWdlS"></path><path d="M397.48 227.08C395.93 227.57 394.49 228.46 393.53 229.89C387.69 238.57 375.74 252.84 360.16 253.13C351.64 253.29 344.56 259.52 344.56 267.91C344.56 267.93 344.56 268.02 344.56 268.03C344.56 276.26 351.33 282.92 359.68 282.92C359.68 288.04 360.26 293.03 361.36 297.82C368.24 327.66 395.34 349.94 427.72 349.94C434.29 349.94 440.62 348.98 446.63 347.27C418.25 339.2 397.48 313.48 397.48 282.92C397.48 271.76 397.48 232.67 397.48 227.08Z" id="c1MCf2ke0"></path><path d="M243.68 272C245.9 269.3 245.48 265.33 242.74 263.14C240 260.95 235.98 261.37 233.76 264.07C231.04 267.37 227.43 269.19 223.6 269.19C219.77 269.19 216.16 267.37 213.44 264.07C211.22 261.37 207.2 260.96 204.46 263.14C201.72 265.33 201.3 269.3 203.52 272C208.63 278.21 215.95 281.77 223.6 281.77C231.25 281.77 238.57 278.21 243.68 272Z" id="bIIkVyJLH"></path><path d="M199.75 238.25C199.75 237.5 199.75 231.54 199.75 230.8C199.75 227.32 196.89 224.51 193.36 224.51C189.83 224.51 186.97 227.32 186.97 230.8C186.97 231.54 186.97 237.5 186.97 238.25C186.97 241.72 189.83 244.54 193.36 244.54C196.89 244.54 199.75 241.72 199.75 238.25Z" id="amq3EdDnV"></path><path d="M260.23 238.25C260.23 237.5 260.23 231.54 260.23 230.8C260.23 227.32 257.37 224.51 253.84 224.51C250.31 224.51 247.45 227.32 247.45 230.8C247.45 231.54 247.45 237.5 247.45 238.25C247.45 241.72 250.31 244.54 253.84 244.54C257.37 244.54 260.23 241.72 260.23 238.25Z" id="aJejkUmKw"></path><path d="M137.58 366.65C134.43 368.21 133.15 371.99 134.73 375.09C135.69 376.99 140.5 386.48 149.17 403.55C149.17 474.14 149.17 513.36 149.17 521.21C149.17 524.68 152.03 527.5 155.56 527.5C159.09 527.5 161.95 524.68 161.95 521.21C161.95 509.29 161.95 413.98 161.95 402.07C161.95 401.09 161.72 400.12 161.27 399.25C160.27 397.27 155.23 387.34 146.15 369.47C142.54 366.55 139.69 365.61 137.58 366.65Z" id="b2JrFZtm5V"></path><path d="M301.04 369.47C299.53 372.44 287.44 396.27 285.92 399.25C285.48 400.13 285.25 401.09 285.25 402.07C285.25 413.98 285.25 509.29 285.25 521.21C285.25 524.68 288.11 527.5 291.64 527.5C295.17 527.5 298.03 524.68 298.03 521.21C298.03 513.36 298.03 474.14 298.03 403.55C306.69 386.48 311.51 376.99 312.47 375.09C314.05 371.99 312.77 368.21 309.62 366.65C306.46 365.1 302.62 366.36 301.04 369.47Z" id="a1Z4AiDL0F"></path><path d="M446.86 300.38C444.12 298.19 440.1 298.6 437.88 301.3C435.16 304.6 431.55 306.42 427.72 306.42C423.89 306.42 420.28 304.6 417.56 301.3C415.34 298.6 411.31 298.19 408.57 300.38C405.83 302.56 405.42 306.53 407.64 309.23C412.75 315.44 420.07 319 427.72 319C435.37 319 442.68 315.44 447.8 309.23C450.02 306.53 449.6 302.56 446.86 300.38Z" id="alOg0hYLp"></path><path d="M391.09 268.03C391.09 268.78 391.09 274.73 391.09 275.48C391.09 278.95 393.95 281.77 397.48 281.77C401.01 281.77 403.87 278.95 403.87 275.48C403.87 274.73 403.87 268.78 403.87 268.03C403.87 264.55 401.01 261.74 397.48 261.74C393.95 261.74 391.09 264.56 391.09 268.03Z" id="bs0ZqW9VN"></path><path d="M464.35 275.48C464.35 274.73 464.35 268.78 464.35 268.03C464.35 264.56 461.49 261.74 457.96 261.74C454.43 261.74 451.57 264.56 451.57 268.03C451.57 268.78 451.57 274.73 451.57 275.48C451.57 278.95 454.43 281.77 457.96 281.77C461.49 281.77 464.35 278.95 464.35 275.48Z" id="eGKKMYciC"></path><path d="M469.83 370.18C466.5 368.87 464.35 365.73 464.35 362.2C464.35 360.65 464.35 348.28 464.35 346.73C467.89 344.76 471.29 342.5 474.47 339.96C487.45 329.63 496.63 315.16 500.3 299.21C501.52 293.9 502.15 288.42 502.15 282.92C502.15 246.27 475.19 241 449.13 235.9C432.46 232.64 415.22 229.27 401.47 218.44C399.96 217.25 397.99 216.8 396.11 217.21C394.23 217.61 392.63 218.83 391.77 220.53C391.73 220.6 388.15 227.54 382.1 234.3C376.97 240.02 368.92 246.84 359.68 246.84C356.57 246.84 353.62 247.5 350.95 248.68C350.95 247.63 350.95 239.29 350.95 238.24C350.95 196.55 385.39 162.63 427.72 162.63C470.05 162.63 504.49 196.55 504.49 238.24C504.49 239.73 504.49 251.65 504.49 253.14C504.49 256.61 507.35 259.43 510.88 259.43C514.4 259.43 517.26 256.61 517.26 253.14C517.26 251.65 517.26 239.73 517.26 238.24C517.26 205.25 498.78 176.44 471.48 161.32C471.76 159.67 471.9 158 471.9 156.33C471.9 136.44 452.08 120.26 427.72 120.26C403.35 120.26 383.53 136.44 383.53 156.33C383.53 158.01 383.68 159.67 383.95 161.32C356.65 176.44 338.17 205.26 338.17 238.24C338.17 241.22 338.17 265.05 338.17 268.03C338.17 277.59 344.64 285.7 353.49 288.32C353.76 291.99 354.31 295.64 355.13 299.21C358.81 315.16 367.98 329.63 380.96 339.96C384.15 342.5 387.54 344.76 391.09 346.73C391.09 348.28 391.09 360.65 391.09 362.2C391.09 365.73 388.93 368.87 385.6 370.18C380.42 372.22 338.95 388.56 333.76 390.6C322.66 394.98 315.49 405.41 315.49 417.19C315.49 420.89 315.49 450.49 315.49 454.19C315.49 455.86 316.16 457.46 317.36 458.64C318.56 459.82 320.18 460.49 321.88 460.49C321.88 460.49 321.88 460.49 321.88 460.49C321.96 460.49 322.35 460.49 323.05 460.49C323.05 496.92 323.05 517.16 323.05 521.21C323.05 524.68 325.91 527.5 329.44 527.5C332.97 527.5 335.83 524.68 335.83 521.21C335.83 517.16 335.83 496.92 335.83 460.48L353.29 460.48C353.29 496.92 353.29 517.16 353.29 521.21C353.29 524.68 356.15 527.5 359.68 527.5C363.21 527.5 366.07 524.68 366.07 521.21C366.07 513.02 366.07 447.49 366.07 439.3C366.07 435.82 363.21 433 359.68 433C356.15 433 353.29 435.82 353.29 439.3C353.29 439.87 353.29 442.74 353.29 447.9C338.98 447.9 331.03 447.9 329.44 447.9C329.44 447.9 329.44 447.9 329.43 447.9C329.36 447.9 328.97 447.9 328.27 447.9C328.27 429.47 328.27 419.24 328.27 417.19C328.27 410.59 332.29 404.74 338.51 402.29C342.54 400.7 374.79 388 378.82 386.41C384.17 395.34 399.36 417.47 424.86 430.03C425.76 430.48 426.74 430.7 427.72 430.7C428.7 430.7 429.67 430.48 430.57 430.03C456.07 417.47 471.26 395.34 476.61 386.41C480.64 388 512.89 400.7 516.93 402.29C523.15 404.74 527.17 410.59 527.17 417.19C527.17 419.24 527.17 429.47 527.17 447.9L526 447.9L502.14 447.9C502.14 442.74 502.14 439.87 502.14 439.3C502.14 435.82 499.28 433.01 495.76 433.01C492.23 433.01 489.37 435.82 489.37 439.3C489.37 447.49 489.37 513.02 489.37 521.21C489.37 524.68 492.23 527.5 495.76 527.5C499.28 527.5 502.14 524.68 502.14 521.21C502.14 517.16 502.14 496.92 502.14 460.48L519.61 460.48C519.61 496.92 519.61 517.16 519.61 521.21C519.61 524.68 522.47 527.5 526 527.5C529.52 527.5 532.38 524.68 532.38 521.21C532.38 517.16 532.38 496.92 532.38 460.48C533.09 460.48 533.48 460.48 533.56 460.48C537.08 460.48 539.94 457.67 539.94 454.19C539.94 450.49 539.94 420.89 539.94 417.19C539.95 405.41 532.77 394.98 521.67 390.61C511.3 386.52 475.02 372.22 469.83 370.18ZM459.1 155.64C449.33 152.02 438.76 150.04 427.72 150.04C416.68 150.04 406.1 152.02 396.33 155.64C396.83 143.01 410.71 132.84 427.72 132.84C444.73 132.84 458.61 143.01 459.1 155.64ZM366.07 282.92C366.07 279.45 363.21 276.63 359.68 276.63C354.86 276.63 350.95 272.77 350.95 268.03C350.95 263.29 354.86 259.43 359.68 259.43C379.05 259.43 393.1 242.15 399.45 232.48C414.35 241.93 431.39 245.27 446.64 248.25C474.72 253.74 489.37 257.77 489.37 282.92C489.37 287.48 488.85 292.03 487.84 296.43C484.8 309.63 477.2 321.61 466.44 330.18C455.37 338.99 441.98 343.65 427.72 343.65C413.45 343.65 400.06 338.99 388.99 330.18C378.24 321.61 370.64 309.63 367.59 296.43C366.58 292.02 366.07 287.48 366.07 282.92ZM390.86 381.64C398.77 378.29 403.87 370.73 403.87 362.2C403.87 361.21 403.87 353.33 403.87 352.34C411.51 354.89 419.57 356.23 427.72 356.23C435.87 356.23 443.93 354.89 451.57 352.34C451.57 353.33 451.57 361.21 451.57 362.2C451.57 370.73 456.66 378.29 464.58 381.64C459.39 389.84 446.99 406.81 427.72 417.3C408.44 406.81 396.04 389.84 390.86 381.64Z" id="h3NSfUcUbm"></path><path d="M319 351.19C325.94 353.24 330.61 359.42 330.61 366.56C330.61 370.04 333.47 372.86 337 372.86C340.53 372.86 343.39 370.04 343.39 366.56C343.39 353.82 335.06 342.8 322.67 339.14C319.91 338.32 306.08 334.23 281.19 326.88C277.04 320.75 274.74 317.35 274.27 316.67C273.27 315.18 271.67 314.18 269.88 313.93C269.17 313.83 268.47 313.85 267.79 313.97C267.79 313.04 267.79 305.56 267.79 304.63C284.73 292.26 296.2 273.01 297.83 251.09C306.68 248.47 313.15 240.36 313.15 230.8C313.15 224.61 310.32 218.74 305.59 214.75C305.59 210.4 305.59 175.58 305.59 171.23C305.59 159.3 299.45 148.13 289.4 141.44C286.03 129 274.71 120.26 261.4 120.26C255.35 120.26 206.97 120.26 200.92 120.26C168.22 120.26 141.61 146.46 141.61 178.67C141.61 182.28 141.61 211.14 141.61 214.75C136.88 218.74 134.05 224.61 134.05 230.8C134.05 240.36 140.52 248.47 149.37 251.09C151 273.01 162.46 292.26 179.41 304.63C179.41 305.56 179.41 313.04 179.41 313.97C178.73 313.85 178.02 313.83 177.32 313.93C175.53 314.18 173.93 315.18 172.92 316.66C172.46 317.35 170.16 320.75 166.01 326.88C141.12 334.23 127.29 338.32 124.53 339.14C112.14 342.8 103.81 353.82 103.81 366.56C103.81 382.03 103.81 505.74 103.81 521.21C103.81 524.68 106.67 527.5 110.2 527.5C113.73 527.5 116.59 524.68 116.59 521.21C116.59 505.74 116.59 382.03 116.59 366.56C116.59 359.42 121.26 353.24 128.2 351.19C131.05 350.35 153.88 343.6 156.74 342.76C156.79 344.06 157.26 345.35 158.13 346.42C160.7 349.58 181.23 374.86 183.79 378.02C186.56 381.42 190.59 383.2 194.67 383.2C197.59 383.2 200.53 382.3 203.05 380.43C204 379.73 208.72 376.25 217.21 369.97C217.21 460.71 217.21 511.12 217.21 521.21C217.21 524.68 220.07 527.5 223.6 527.5C227.13 527.5 229.99 524.68 229.99 521.21C229.99 511.12 229.99 460.71 229.99 369.97C238.48 376.25 243.2 379.73 244.14 380.43C246.67 382.3 249.61 383.2 252.53 383.2C256.61 383.2 260.64 381.42 263.4 378.02C265.97 374.86 286.5 349.58 289.07 346.42C289.94 345.35 290.41 344.06 290.46 342.76C296.17 344.45 316.15 350.35 319 351.19ZM155.56 239.4C150.75 239.4 146.83 235.54 146.83 230.8C146.83 227.75 148.47 224.98 151.21 223.41C151.35 223.33 151.48 223.23 151.62 223.14C152.83 222.53 154.18 222.2 155.56 222.2C156.45 222.2 163.59 222.2 164.48 222.2C171.11 222.2 176.86 217.55 178.16 211.15C178.62 208.87 182.34 190.55 182.81 188.26C182.87 187.94 183.04 187.7 183.31 187.54C183.52 187.42 183.87 187.3 184.34 187.43C195.69 190.69 209.26 192.41 223.6 192.41C242 192.41 258.98 189.6 271.42 184.48C274.68 183.14 276.21 179.46 274.85 176.25C273.49 173.04 269.75 171.53 266.5 172.87C255.74 177.29 240.1 179.83 223.6 179.83C210.64 179.83 197.97 178.24 187.92 175.35C184.13 174.26 180.04 174.78 176.69 176.78C173.38 178.75 171.04 182.04 170.28 185.8C169.81 188.09 166.09 206.4 165.63 208.69C165.52 209.22 165.04 209.61 164.48 209.61C163.59 209.61 156.45 209.61 155.56 209.61C155.17 209.61 154.78 209.63 154.39 209.65C154.39 206.55 154.39 181.77 154.39 178.67C154.39 153.4 175.26 132.84 200.92 132.84C206.97 132.84 255.35 132.84 261.4 132.84C269.41 132.84 276.15 138.53 277.41 146.37C277.72 148.26 278.88 149.92 280.58 150.86C288.12 155.05 292.81 162.86 292.81 171.23C292.81 175.9 292.81 213.3 292.81 217.97C292.81 220.21 294.02 222.28 295.98 223.41C298.73 224.98 300.37 227.75 300.37 230.8C300.37 235.54 296.45 239.4 291.64 239.4C288.11 239.4 285.25 242.22 285.25 245.69C285.25 279.18 257.59 306.42 223.6 306.42C189.6 306.42 161.95 279.17 161.95 245.69C161.95 242.22 159.09 239.4 155.56 239.4ZM255.01 312.14C255.01 312.89 255.01 316.65 255.01 323.41L223.6 349.2L192.19 323.41C192.19 316.65 192.19 312.89 192.19 312.14C201.74 316.53 212.38 319 223.6 319C234.82 319 245.46 316.54 255.01 312.14ZM193.77 370.16C192.25 368.29 184.67 358.96 171.03 342.16L179.61 329.47L213.3 357.13L195.39 370.36C194.58 370.55 194.04 370.49 193.77 370.16ZM251.81 370.36C250.62 369.48 244.64 365.07 233.9 357.13L267.59 329.47L276.17 342.16L253.43 370.16C252.69 370.54 252.15 370.61 251.81 370.36Z" id="cdDhmMbaP"></path><path d="M200.92 418.11C197.39 418.11 194.57 420.93 194.57 424.41C194.57 427.88 197.47 430.7 200.99 430.7C204.52 430.7 207.38 427.88 207.38 424.41C207.38 420.93 204.52 418.11 201 418.11C200.98 418.11 200.93 418.11 200.92 418.11Z" id="c7eyO4Zj3"></path><path d="M200.92 477.68C197.39 477.68 194.57 480.5 194.57 483.98C194.57 487.45 197.47 490.27 200.99 490.27C204.52 490.27 207.38 487.45 207.38 483.98C207.38 480.5 204.52 477.68 201 477.68C200.98 477.68 200.93 477.68 200.92 477.68Z" id="aDGvG1roe"></path><path d="M200.92 447.9C197.39 447.9 194.57 450.72 194.57 454.19C194.57 457.67 197.47 460.48 200.99 460.48C204.52 460.48 207.38 457.67 207.38 454.19C207.38 450.72 204.52 447.9 201 447.9C200.98 447.9 200.93 447.9 200.92 447.9Z" id="bPJJa1jYu"></path></defs><g><g><g><use xlink:href="#ckMJjAlIX" opacity="1" fill="#535050" fill-opacity="1"></use></g><g><use xlink:href="#a1mJ0Ih3bC" opacity="1" fill="#b4e66e" fill-opacity="1"></use><g><use xlink:href="#a1mJ0Ih3bC" opacity="1" fill-opacity="0" stroke="#000000" stroke-width="1" stroke-opacity="0"></use></g></g><g><use xlink:href="#b278qeQJlE" opacity="1" fill="#a0d755" fill-opacity="1"></use><g><use xlink:href="#b278qeQJlE" opacity="1" fill-opacity="0" stroke="#000000" stroke-width="1" stroke-opacity="0"></use></g></g><g><use xlink:href="#e1d32SRlPl" opacity="1" fill="#a0d755" fill-opacity="1"></use><g><use xlink:href="#e1d32SRlPl" opacity="1" fill-opacity="0" stroke="#000000" stroke-width="1" stroke-opacity="0"></use></g></g><g><use xlink:href="#a4CyUYqeyy" opacity="1" fill="#fad7a5" fill-opacity="1"></use><g><use xlink:href="#a4CyUYqeyy" opacity="1" fill-opacity="0" stroke="#000000" stroke-width="1" stroke-opacity="0"></use></g></g><g><use xlink:href="#b1BB6femJr" opacity="1" fill="#f0c891" fill-opacity="1"></use><g><use xlink:href="#b1BB6femJr" opacity="1" fill-opacity="0" stroke="#000000" stroke-width="1" stroke-opacity="0"></use></g></g><g><use xlink:href="#i17fqq4TpZ" opacity="1" fill="#e6af78" fill-opacity="1"></use><g><use xlink:href="#i17fqq4TpZ" opacity="1" fill-opacity="0" stroke="#000000" stroke-width="1" stroke-opacity="0"></use></g></g><g><use xlink:href="#c3moehTA2" opacity="1" fill="#d29b6e" fill-opacity="1"></use><g><use xlink:href="#c3moehTA2" opacity="1" fill-opacity="0" stroke="#000000" stroke-width="1" stroke-opacity="0"></use></g></g><g><use xlink:href="#c2iE7c7s3" opacity="1" fill="#ffdc64" fill-opacity="1"></use><g><use xlink:href="#c2iE7c7s3" opacity="1" fill-opacity="0" stroke="#000000" stroke-width="1" stroke-opacity="0"></use></g></g><g><use xlink:href="#bnJVYbw7l" opacity="1" fill="#ffc850" fill-opacity="1"></use><g><use xlink:href="#bnJVYbw7l" opacity="1" fill-opacity="0" stroke="#000000" stroke-width="1" stroke-opacity="0"></use></g></g><g><use xlink:href="#a4kiFInXst" opacity="1" fill="#ffc850" fill-opacity="1"></use><g><use xlink:href="#a4kiFInXst" opacity="1" fill-opacity="0" stroke="#000000" stroke-width="1" stroke-opacity="0"></use></g></g><g><use xlink:href="#j4QGjl64JX" opacity="1" fill="#c8ff82" fill-opacity="1"></use><g><use xlink:href="#j4QGjl64JX" opacity="1" fill-opacity="0" stroke="#000000" stroke-width="1" stroke-opacity="0"></use></g></g><g><use xlink:href="#b13CmJYWpa" opacity="1" fill="#c8ff82" fill-opacity="1"></use><g><use xlink:href="#b13CmJYWpa" opacity="1" fill-opacity="0" stroke="#000000" stroke-width="1" stroke-opacity="0"></use></g></g><g><use xlink:href="#d4jbdKJc3" opacity="1" fill="#ffe1b4" fill-opacity="1"></use><g><use xlink:href="#d4jbdKJc3" opacity="1" fill-opacity="0" stroke="#000000" stroke-width="1" stroke-opacity="0"></use></g></g><g><use xlink:href="#b31CvVTmqW" opacity="1" fill="#fad7a5" fill-opacity="1"></use><g><use xlink:href="#b31CvVTmqW" opacity="1" fill-opacity="0" stroke="#000000" stroke-width="1" stroke-opacity="0"></use></g></g><g><use xlink:href="#avWPPmzRx" opacity="1" fill="#d59f63" fill-opacity="1"></use><g><use xlink:href="#avWPPmzRx" opacity="1" fill-opacity="0" stroke="#000000" stroke-width="1" stroke-opacity="0"></use></g></g><g><use xlink:href="#f14UiMTnxx" opacity="1" fill="#cd915a" fill-opacity="1"></use><g><use xlink:href="#f14UiMTnxx" opacity="1" fill-opacity="0" stroke="#000000" stroke-width="1" stroke-opacity="0"></use></g></g><g><use xlink:href="#m1pHPXU9Ud" opacity="1" fill="#785546" fill-opacity="1"></use><g><use xlink:href="#m1pHPXU9Ud" opacity="1" fill-opacity="0" stroke="#000000" stroke-width="1" stroke-opacity="0"></use></g></g><g><use xlink:href="#b3TYAlHCK" opacity="1" fill="#64463c" fill-opacity="1"></use><g><use xlink:href="#b3TYAlHCK" opacity="1" fill-opacity="0" stroke="#000000" stroke-width="1" stroke-opacity="0"></use></g></g><g><use xlink:href="#a2iLBZWdlS" opacity="1" fill="#f0c087" fill-opacity="1"></use><g><use xlink:href="#a2iLBZWdlS" opacity="1" fill-opacity="0" stroke="#000000" stroke-width="1" stroke-opacity="0"></use></g></g><g><use xlink:href="#c1MCf2ke0" opacity="1" fill="#e6af78" fill-opacity="1"></use><g><use xlink:href="#c1MCf2ke0" opacity="1" fill-opacity="0" stroke="#000000" stroke-width="1" stroke-opacity="0"></use></g></g><g><use xlink:href="#bIIkVyJLH" opacity="1" fill="#000000" fill-opacity="1"></use><g><use xlink:href="#bIIkVyJLH" opacity="1" fill-opacity="0" stroke="#000000" stroke-width="1" stroke-opacity="0"></use></g></g><g><use xlink:href="#amq3EdDnV" opacity="1" fill="#000000" fill-opacity="1"></use><g><use xlink:href="#amq3EdDnV" opacity="1" fill-opacity="0" stroke="#000000" stroke-width="1" stroke-opacity="0"></use></g></g><g><use xlink:href="#aJejkUmKw" opacity="1" fill="#000000" fill-opacity="1"></use><g><use xlink:href="#aJejkUmKw" opacity="1" fill-opacity="0" stroke="#000000" stroke-width="1" stroke-opacity="0"></use></g></g><g><use xlink:href="#b2JrFZtm5V" opacity="1" fill="#000000" fill-opacity="1"></use><g><use xlink:href="#b2JrFZtm5V" opacity="1" fill-opacity="0" stroke="#000000" stroke-width="1" stroke-opacity="0"></use></g></g><g><use xlink:href="#a1Z4AiDL0F" opacity="1" fill="#000000" fill-opacity="1"></use><g><use xlink:href="#a1Z4AiDL0F" opacity="1" fill-opacity="0" stroke="#000000" stroke-width="1" stroke-opacity="0"></use></g></g><g><use xlink:href="#alOg0hYLp" opacity="1" fill="#000000" fill-opacity="1"></use><g><use xlink:href="#alOg0hYLp" opacity="1" fill-opacity="0" stroke="#000000" stroke-width="1" stroke-opacity="0"></use></g></g><g><use xlink:href="#bs0ZqW9VN" opacity="1" fill="#000000" fill-opacity="1"></use><g><use xlink:href="#bs0ZqW9VN" opacity="1" fill-opacity="0" stroke="#000000" stroke-width="1" stroke-opacity="0"></use></g></g><g><use xlink:href="#eGKKMYciC" opacity="1" fill="#000000" fill-opacity="1"></use><g><use xlink:href="#eGKKMYciC" opacity="1" fill-opacity="0" stroke="#000000" stroke-width="1" stroke-opacity="0"></use></g></g><g><use xlink:href="#h3NSfUcUbm" opacity="1" fill="#000000" fill-opacity="1"></use><g><use xlink:href="#h3NSfUcUbm" opacity="1" fill-opacity="0" stroke="#000000" stroke-width="1" stroke-opacity="0"></use></g></g><g><use xlink:href="#cdDhmMbaP" opacity="1" fill="#000000" fill-opacity="1"></use><g><use xlink:href="#cdDhmMbaP" opacity="1" fill-opacity="0" stroke="#000000" stroke-width="1" stroke-opacity="0"></use></g></g><g><use xlink:href="#c7eyO4Zj3" opacity="1" fill="#000000" fill-opacity="1"></use><g><use xlink:href="#c7eyO4Zj3" opacity="1" fill-opacity="0" stroke="#000000" stroke-width="1" stroke-opacity="0"></use></g></g><g><use xlink:href="#aDGvG1roe" opacity="1" fill="#000000" fill-opacity="1"></use><g><use xlink:href="#aDGvG1roe" opacity="1" fill-opacity="0" stroke="#000000" stroke-width="1" stroke-opacity="0"></use></g></g><g><use xlink:href="#bPJJa1jYu" opacity="1" fill="#000000" fill-opacity="1"></use><g><use xlink:href="#bPJJa1jYu" opacity="1" fill-opacity="0" stroke="#000000" stroke-width="1" stroke-opacity="0"></use></g></g></g></g></svg>